<?xml version="1.0" encoding="UTF-8" standalone="no"?>
<!-- Created with Inkscape (http://www.inkscape.org/) -->

<svg
   xmlns:dc="http://purl.org/dc/elements/1.1/"
   xmlns:cc="http://creativecommons.org/ns#"
   xmlns:rdf="http://www.w3.org/1999/02/22-rdf-syntax-ns#"
   xmlns:svg="http://www.w3.org/2000/svg"
   xmlns="http://www.w3.org/2000/svg"
   xmlns:sodipodi="http://sodipodi.sourceforge.net/DTD/sodipodi-0.dtd"
   xmlns:inkscape="http://www.inkscape.org/namespaces/inkscape"
   id="svg3605"
   sodipodi:docname="stone.svg"
   viewBox="0 0 128 128"
   sodipodi:version="0.32"
   version="1.0"
   inkscape:output_extension="org.inkscape.output.svg.inkscape"
   inkscape:version="0.92.3 (2405546, 2018-03-11)">
  <defs
     id="defs57" />
  <sodipodi:namedview
     id="base"
     bordercolor="#666666"
     inkscape:pageshadow="2"
     inkscape:guide-bbox="true"
     pagecolor="#ffffff"
     inkscape:window-height="1025"
     inkscape:grid-bbox="true"
     inkscape:zoom="4"
     inkscape:window-x="67"
     showgrid="true"
     borderopacity="1.0"
     inkscape:current-layer="g4785"
     inkscape:cx="-8.0578325"
     inkscape:cy="74.309317"
     showguides="true"
     inkscape:window-y="27"
     inkscape:window-width="1853"
     inkscape:pageopacity="0.0"
     inkscape:document-units="px"
     inkscape:window-maximized="1" />
  <g
     id="layer1"
     inkscape:label="Layer 1"
     inkscape:groupmode="layer">
    <g
       id="g4785"
       transform="translate(466,7)">
      <g
         id="g202"
         transform="matrix(1,0,0,0.99002845,-4,-9.8299339)">
        <path
           inkscape:connector-curvature="0"
           d="m -414.5766,18.325044 c -16.88,0.422 -22.9834,5.667456 -30.5134,22.205456 -4.14,9.216 -5.13,19.549 -4.6,29.638 2.39,11.003 5.31,22.594 10.9,32.302 8.2,12.12 22.48,14.26 35.96,14.87 11.64,-0.41 23.23,-3.37 33.68,-8.81 8.23,-4.12 12.94,-11.714 16.01,-20.549 2.2,-11.553 2.84,-24.341 0,-35.876 -4.73,-7.1 -6.93,-16.813 -12.61,-23.12 -24.35095,-10.501803 -27.15309,-12.105236 -38.89711,-11.916345 -17.13531,1.759497 0,0 -9.92949,1.255889 z"
           style="fill:#000000;fill-rule:evenodd"
           sodipodi:nodetypes="ccccccccccc"
           id="path4637" />
        <path
           inkscape:connector-curvature="0"
           d="m -425.12,27.367 c -8.54,5.544 -20.03,20.633 -20.24,30.943 -0.33,16.837 4.36,39.052 19.13,47.94 13.05,5.92 21.86,7.01 35.67,4.58 13.6,-0.78 22.15,-7.9 27.52,-14.702 5.37,-6.801 7.17,-28.681 7.18,-31.188 0.1,-14.002 -8.24,-28.501 -18.89,-33.955 -6.78,-3.467 -15.97,-7.448 -23.7,-7.563 -6.54,0.991 2.40591,-0.862061 -6.54,0.991 -8.5,1.283 -12,0.118 -20.13,2.954 z"
           style="fill:#00aad4;fill-rule:evenodd"
           sodipodi:nodetypes="csccsssccc"
           id="path4639" />
        <path
           inkscape:connector-curvature="0"
           d="m -431.65,89.455 -16.31,-17.271 1.05,8.754 1.8,10.088 6.71,9.434 10.9,9.66 14.46,2.71 25.48,-0.55 23.32,-6.58 c 0,0 7.62,-17.267 7.18,-18.757 -12.04,11.186 -21.43,13.837 -28.76,11.125 l -11.65,-1.573 -19.28,-2.142 z"
           style="fill:#000000;fill-opacity:0.25516998;fill-rule:evenodd"
           sodipodi:nodetypes="cccccccccccccc"
           id="path4645" />
        <path
           id="path4660"
           sodipodi:nodetypes="ccccc"
           style="fill:#ffffff;fill-opacity:0.24483002;fill-rule:evenodd;stroke-width:1.02898014"
           d="m -423.42,63.197202 c 0.64,2.01172 -0.38,2.643823 -3.21,1.766078 -1.49,-0.687161 -1.01,-1.571259 -0.9,-2.835466 0.29,-0.922215 0.97,-0.960332 2.07,-0.950803 0.77,0.591869 1.42,1.322441 2.04,2.020191 z"
           inkscape:connector-curvature="0" />
        <path
           id="path4662"
           sodipodi:nodetypes="ccccc"
           style="fill:#ffffff;fill-opacity:0.24483002;fill-rule:evenodd;stroke-width:1.02898014"
           d="m -418.15,72.010653 c 0.64,2.010661 -0.38,2.643823 -3.21,1.766078 -1.49,-0.687161 -1.01,-1.572318 -0.91,-2.835466 0.3,-0.923274 0.98,-0.961391 2.07,-0.951861 0.78,0.591869 1.43,1.322441 2.05,2.021249 z"
           inkscape:connector-curvature="0" />
        <path
           id="path4664"
           sodipodi:nodetypes="ccccc"
           style="fill:#ffffff;fill-opacity:0.24483002;fill-rule:evenodd;stroke-width:1.02898014"
           d="m -411.58,64.73352 c 0.64,2.010662 -0.38,2.643824 -3.21,1.766079 -1.49,-0.687161 -1.01,-1.572318 -0.9,-2.835467 0.29,-0.922214 0.97,-0.96139 2.07,-0.951861 0.77,0.591869 1.42,1.322441 2.04,2.021249 z"
           inkscape:connector-curvature="0" />
        <path
           id="path4666"
           sodipodi:nodetypes="ccccc"
           style="fill:#ffffff;fill-opacity:0.24483002;fill-rule:evenodd;stroke-width:1.02898014"
           d="m -405.6,81.818317 c 0.64,2.01172 -0.38,2.643824 -3.21,1.766079 -1.49,-0.687162 -1.01,-1.57126 -0.91,-2.835467 0.3,-0.922215 0.98,-0.96139 2.07,-0.950802 0.78,0.59081 1.43,1.322441 2.05,2.02019 z"
           inkscape:connector-curvature="0" />
        <path
           id="path4668"
           sodipodi:nodetypes="ccccc"
           style="fill:#ffffff;fill-opacity:0.24483002;fill-rule:evenodd;stroke-width:1.02898014"
           d="m -403.51,71.37749 c 0.64,2.01172 -0.38,2.643824 -3.21,1.766079 -1.49,-0.687161 -1.01,-1.572318 -0.9,-2.835467 0.29,-0.922214 0.97,-0.96139 2.07,-0.950802 0.77,0.59081 1.42,1.321382 2.04,2.02019 z"
           inkscape:connector-curvature="0" />
        <path
           id="path4670"
           sodipodi:nodetypes="ccccc"
           style="fill:#ffffff;fill-opacity:0.24483002;fill-rule:evenodd;stroke-width:1.02898014"
           d="m -415.16,81.185155 c 0.64,2.01172 -0.39,2.643823 -3.22,1.766078 -1.48,-0.687161 -1.01,-1.571259 -0.9,-2.834407 0.3,-0.923274 0.98,-0.961391 2.07,-0.951862 0.78,0.59187 1.42,1.322442 2.05,2.020191 z"
           inkscape:connector-curvature="0" />
        <path
           id="path4672"
           sodipodi:nodetypes="ccccc"
           style="fill:#ffffff;fill-opacity:0.24483002;fill-rule:evenodd;stroke-width:1.02898014"
           d="m -397.83,61.569826 c 0.64,2.010661 -0.38,2.642765 -3.21,1.766078 -1.49,-0.68822 -1.02,-1.572318 -0.91,-2.835466 0.3,-0.923274 0.98,-0.96139 2.07,-0.951861 0.78,0.591869 1.43,1.322441 2.05,2.021249 z"
           inkscape:connector-curvature="0" />
        <path
           id="path4674"
           sodipodi:nodetypes="ccccc"
           style="fill:#ffffff;fill-opacity:0.24483002;fill-rule:evenodd;stroke-width:1.02898014"
           d="m -410.68,92.575725 c 0.64,2.01172 -0.38,2.643824 -3.21,1.766079 -1.49,-0.687162 -1.01,-1.572318 -0.91,-2.835467 0.3,-0.922215 0.98,-0.96139 2.07,-0.950802 0.78,0.59081 1.43,1.322441 2.05,2.02019 z"
           inkscape:connector-curvature="0" />
        <path
           id="path4676"
           sodipodi:nodetypes="ccccc"
           style="fill:#ffffff;fill-opacity:0.24483002;fill-rule:evenodd;stroke-width:1.02898014"
           d="m -394.24,80.23647 c 0.63,2.01172 -0.39,2.643824 -3.22,1.766078 -1.48,-0.687161 -1.01,-1.572318 -0.9,-2.835466 0.29,-0.922215 0.98,-0.96139 2.07,-0.950802 0.77,0.59081 1.42,1.321382 2.05,2.02019 z"
           inkscape:connector-curvature="0" />
        <path
           id="path4678"
           sodipodi:nodetypes="ccccc"
           style="fill:#ffffff;fill-opacity:0.24483002;fill-rule:evenodd;stroke-width:1.02898014"
           d="m -397.23,90.677297 c 0.63,2.01172 -0.39,2.643823 -3.22,1.766078 -1.48,-0.687161 -1.01,-1.571259 -0.9,-2.835466 0.29,-0.922215 0.98,-0.961391 2.07,-0.950803 0.77,0.590811 1.42,1.322442 2.05,2.020191 z"
           inkscape:connector-curvature="0" />
        <path
           id="path4680"
           sodipodi:nodetypes="ccccc"
           style="fill:#ffffff;fill-opacity:0.24483002;fill-rule:evenodd;stroke-width:1.02898014"
           d="m -392.75,105.23156 c 0.64,2.01172 -0.38,2.64382 -3.21,1.76608 -1.49,-0.68716 -1.02,-1.57232 -0.91,-2.83547 0.3,-0.92221 0.98,-0.96139 2.07,-0.9508 0.78,0.59081 1.43,1.32138 2.05,2.02019 z"
           inkscape:connector-curvature="0" />
        <path
           id="path4682"
           sodipodi:nodetypes="ccccc"
           style="fill:#ffffff;fill-opacity:0.24483002;fill-rule:evenodd;stroke-width:1.02898014"
           d="m -382.59,104.91498 c 0.64,2.01172 -0.38,2.64382 -3.21,1.76608 -1.49,-0.68716 -1.02,-1.57232 -0.91,-2.83547 0.3,-0.92221 0.98,-0.96139 2.07,-0.9508 0.78,0.59081 1.43,1.32244 2.05,2.02019 z"
           inkscape:connector-curvature="0" />
        <path
           id="path4684"
           sodipodi:nodetypes="ccccc"
           style="fill:#ffffff;fill-opacity:0.24483002;fill-rule:evenodd;stroke-width:1.02898014"
           d="m -370.64,101.43471 c 0.64,2.01172 -0.38,2.64382 -3.21,1.76607 -1.49,-0.68716 -1.01,-1.57231 -0.9,-2.83546 0.29,-0.922218 0.97,-0.961394 2.07,-0.950806 0.77,0.590816 1.42,1.322446 2.04,2.020196 z"
           inkscape:connector-curvature="0" />
        <path
           id="path4686"
           sodipodi:nodetypes="ccccc"
           style="fill:#ffffff;fill-opacity:0.24483002;fill-rule:evenodd;stroke-width:1.02898014"
           d="m -361.07,96.372582 c 0.63,2.01172 -0.39,2.643824 -3.22,1.766078 -1.49,-0.687161 -1.01,-1.572318 -0.9,-2.835466 0.29,-0.922215 0.98,-0.96139 2.07,-0.950802 0.77,0.59081 1.42,1.321382 2.05,2.02019 z"
           inkscape:connector-curvature="0" />
        <path
           id="path4688"
           sodipodi:nodetypes="ccccc"
           style="fill:#ffffff;fill-opacity:0.24483002;fill-rule:evenodd;stroke-width:1.02898014"
           d="m -355.99,86.563859 c 0.63,2.01172 -0.39,2.643823 -3.22,1.766078 -1.49,-0.687161 -1.01,-1.571259 -0.9,-2.835466 0.29,-0.922215 0.98,-0.960332 2.07,-0.950803 0.77,0.59187 1.42,1.322442 2.05,2.020191 z"
           inkscape:connector-curvature="0" />
        <path
           id="path4690"
           sodipodi:nodetypes="ccccc"
           style="fill:#ffffff;fill-opacity:0.24483002;fill-rule:evenodd;stroke-width:1.02898014"
           d="m -366.45,88.462287 c 0.63,2.01172 -0.39,2.643824 -3.22,1.766079 -1.48,-0.687162 -1.01,-1.57126 -0.9,-2.835467 0.29,-0.922215 0.98,-0.960331 2.07,-0.950802 0.77,0.591869 1.42,1.322441 2.05,2.02019 z"
           inkscape:connector-curvature="0" />
        <path
           id="path4692"
           sodipodi:nodetypes="ccccc"
           style="fill:#ffffff;fill-opacity:0.24483002;fill-rule:evenodd;stroke-width:1.02898014"
           d="m -379,94.474154 c 0.63,2.01172 -0.39,2.643823 -3.22,1.766078 -1.48,-0.687161 -1.01,-1.572318 -0.9,-2.835466 0.29,-0.922215 0.98,-0.961391 2.07,-0.950803 0.77,0.590811 1.42,1.321383 2.05,2.020191 z"
           inkscape:connector-curvature="0" />
        <path
           id="path4694"
           sodipodi:nodetypes="ccccc"
           style="fill:#ffffff;fill-opacity:0.24483002;fill-rule:evenodd;stroke-width:1.02898014"
           d="m -390.96,97.005744 c 0.64,2.010662 -0.38,2.642765 -3.21,1.766079 -1.49,-0.68822 -1.01,-1.572318 -0.9,-2.835467 0.29,-0.923273 0.97,-0.96139 2.07,-0.951861 0.77,0.591869 1.42,1.322441 2.04,2.021249 z"
           inkscape:connector-curvature="0" />
        <path
           id="path4696"
           sodipodi:nodetypes="ccccc"
           style="fill:#ffffff;fill-opacity:0.24483002;fill-rule:evenodd;stroke-width:1.02898014"
           d="m -403.81,99.219695 c 0.64,2.011715 -0.38,2.643825 -3.21,1.766075 -1.49,-0.68716 -1.01,-1.571256 -0.9,-2.835463 0.29,-0.922215 0.97,-0.960331 2.07,-0.950802 0.77,0.591869 1.42,1.322441 2.04,2.02019 z"
           inkscape:connector-curvature="0" />
        <path
           id="path4698"
           sodipodi:nodetypes="ccccc"
           style="fill:#ffffff;fill-opacity:0.24483002;fill-rule:evenodd;stroke-width:1.02898014"
           d="m -422.93,93.208888 c 0.64,2.010661 -0.39,2.643823 -3.21,1.766078 -1.49,-0.687161 -1.02,-1.572318 -0.91,-2.835466 0.3,-0.923274 0.98,-0.961391 2.07,-0.951862 0.78,0.59187 1.43,1.322442 2.05,2.02125 z"
           inkscape:connector-curvature="0" />
        <path
           id="path4700"
           sodipodi:nodetypes="ccccc"
           style="fill:#ffffff;fill-opacity:0.24483002;fill-rule:evenodd;stroke-width:1.02898014"
           d="m -429.5,80.869632 c 0.63,2.010662 -0.39,2.643824 -3.22,1.766079 -1.49,-0.687161 -1.01,-1.572318 -0.9,-2.835467 0.29,-0.923273 0.98,-0.96139 2.07,-0.951861 0.77,0.591869 1.42,1.322441 2.05,2.021249 z"
           inkscape:connector-curvature="0" />
        <path
           id="path4702"
           sodipodi:nodetypes="ccccc"
           style="fill:#ffffff;fill-opacity:0.24483002;fill-rule:evenodd;stroke-width:1.02898014"
           d="m -432.19,68.530377 c 0.63,2.010661 -0.39,2.642765 -3.22,1.766079 -1.49,-0.687162 -1.01,-1.572318 -0.9,-2.835467 0.29,-0.923273 0.98,-0.96139 2.07,-0.951861 0.77,0.591869 1.42,1.322441 2.05,2.021249 z"
           inkscape:connector-curvature="0" />
        <path
           id="path4704"
           sodipodi:nodetypes="ccccc"
           style="fill:#ffffff;fill-opacity:0.24483002;fill-rule:evenodd;stroke-width:1.02898014"
           d="m -428.91,55.55796 c 0.64,2.01172 -0.38,2.643823 -3.21,1.766078 -1.49,-0.687161 -1.01,-1.572318 -0.9,-2.835466 0.29,-0.922215 0.97,-0.961391 2.07,-0.950803 0.77,0.590811 1.42,1.321383 2.04,2.020191 z"
           inkscape:connector-curvature="0" />
        <path
           id="path4706"
           sodipodi:nodetypes="ccccc"
           style="fill:#ffffff;fill-opacity:0.24483002;fill-rule:evenodd;stroke-width:1.02898014"
           d="m -422.33,41.003695 c 0.63,2.01172 -0.39,2.643823 -3.22,1.766078 -1.48,-0.687161 -1.01,-1.571259 -0.9,-2.835466 0.29,-0.922215 0.98,-0.961391 2.07,-0.950803 0.77,0.590811 1.42,1.322442 2.05,2.020191 z"
           inkscape:connector-curvature="0" />
        <path
           id="path4708"
           sodipodi:nodetypes="ccccc"
           style="fill:#ffffff;fill-opacity:0.24483002;fill-rule:evenodd;stroke-width:1.02898014"
           d="m -406.57,42.113429 c 0.64,2.01172 -0.38,2.643823 -3.21,1.766078 -1.49,-0.687161 -1.01,-1.572318 -0.91,-2.835466 0.3,-0.922215 0.98,-0.961391 2.07,-0.950803 0.78,0.590811 1.43,1.321383 2.05,2.020191 z"
           inkscape:connector-curvature="0" />
        <path
           id="path4710"
           sodipodi:nodetypes="ccccc"
           style="fill:#ffffff;fill-opacity:0.24483002;fill-rule:evenodd;stroke-width:1.02898014"
           d="m -418.45,53.976112 c 0.64,2.01172 -0.38,2.643824 -3.21,1.766079 -1.49,-0.687161 -1.01,-1.572318 -0.91,-2.835467 0.3,-0.922214 0.98,-0.96139 2.07,-0.950802 0.78,0.59081 1.43,1.321382 2.05,2.02019 z"
           inkscape:connector-curvature="0" />
        <path
           id="path4712"
           sodipodi:nodetypes="ccccc"
           style="fill:#ffffff;fill-opacity:0.24483002;fill-rule:evenodd;stroke-width:1.02898014"
           d="m -405.9,56.506644 c 0.64,2.01172 -0.38,2.643824 -3.21,1.766079 -1.49,-0.687161 -1.01,-1.571259 -0.91,-2.835467 0.3,-0.922214 0.98,-0.960331 2.07,-0.950802 0.78,0.591869 1.43,1.322441 2.05,2.02019 z"
           inkscape:connector-curvature="0" />
        <path
           id="path4714"
           sodipodi:nodetypes="ccccc"
           style="fill:#ffffff;fill-opacity:0.24483002;fill-rule:evenodd;stroke-width:1.02898014"
           d="m -385.58,59.038235 c 0.64,2.01172 -0.38,2.643824 -3.21,1.766079 -1.49,-0.687162 -1.01,-1.572318 -0.91,-2.835467 0.3,-0.922215 0.98,-0.96139 2.07,-0.950802 0.78,0.59081 1.43,1.321382 2.05,2.02019 z"
           inkscape:connector-curvature="0" />
        <path
           id="path4716"
           sodipodi:nodetypes="ccccc"
           style="fill:#ffffff;fill-opacity:0.24483002;fill-rule:evenodd;stroke-width:1.02898014"
           d="m -388.86,71.37749 c 0.63,2.01172 -0.39,2.643824 -3.22,1.766079 -1.49,-0.687161 -1.01,-1.572318 -0.9,-2.835467 0.29,-0.922214 0.98,-0.96139 2.07,-0.950802 0.77,0.59081 1.42,1.321382 2.05,2.02019 z"
           inkscape:connector-curvature="0" />
        <path
           id="path4718"
           sodipodi:nodetypes="ccccc"
           style="fill:#ffffff;fill-opacity:0.24483002;fill-rule:evenodd;stroke-width:1.02898014"
           d="m -384.08,82.768061 c 0.63,2.010661 -0.39,2.642765 -3.22,1.766078 -1.48,-0.68822 -1.01,-1.572318 -0.9,-2.835466 0.29,-0.923274 0.98,-0.961391 2.07,-0.951861 0.77,0.591869 1.42,1.322441 2.05,2.021249 z"
           inkscape:connector-curvature="0" />
        <path
           id="path4720"
           sodipodi:nodetypes="ccccc"
           style="fill:#ffffff;fill-opacity:0.24483002;fill-rule:evenodd;stroke-width:1.02898014"
           d="m -373.03,80.23647 c 0.64,2.01172 -0.38,2.643824 -3.21,1.766078 -1.49,-0.687161 -1.01,-1.572318 -0.91,-2.835466 0.3,-0.922215 0.98,-0.96139 2.07,-0.950802 0.78,0.59081 1.43,1.321382 2.05,2.02019 z"
           inkscape:connector-curvature="0" />
        <path
           id="path4722"
           sodipodi:nodetypes="ccccc"
           style="fill:#ffffff;fill-opacity:0.24483002;fill-rule:evenodd;stroke-width:1.02898014"
           d="m -377.21,65.998786 c 0.64,2.01172 -0.39,2.643824 -3.22,1.766079 -1.48,-0.687161 -1.01,-1.572318 -0.9,-2.835467 0.3,-0.922214 0.98,-0.96139 2.07,-0.950802 0.78,0.59081 1.43,1.322441 2.05,2.02019 z"
           inkscape:connector-curvature="0" />
        <path
           id="path4724"
           sodipodi:nodetypes="ccccc"
           style="fill:#ffffff;fill-opacity:0.24483002;fill-rule:evenodd;stroke-width:1.02898014"
           d="m -366.75,69.795643 c 0.63,2.01172 -0.39,2.643824 -3.22,1.766079 -1.48,-0.687162 -1.01,-1.572318 -0.9,-2.835467 0.29,-0.922215 0.98,-0.96139 2.07,-0.950802 0.77,0.59081 1.42,1.321382 2.05,2.02019 z"
           inkscape:connector-curvature="0" />
        <path
           id="path4726"
           sodipodi:nodetypes="ccccc"
           style="fill:#ffffff;fill-opacity:0.24483002;fill-rule:evenodd;stroke-width:1.02898014"
           d="m -355.7,72.010653 c 0.64,2.010661 -0.38,2.643823 -3.21,1.766078 -1.49,-0.687161 -1.01,-1.572318 -0.9,-2.835466 0.29,-0.923274 0.97,-0.961391 2.07,-0.951861 0.77,0.591869 1.42,1.322441 2.04,2.021249 z"
           inkscape:connector-curvature="0" />
        <path
           id="path4728"
           sodipodi:nodetypes="ccccc"
           style="fill:#ffffff;fill-opacity:0.24483002;fill-rule:evenodd;stroke-width:1.02898014"
           d="m -379.3,52.077684 c 0.63,2.01172 -0.39,2.643824 -3.22,1.766078 -1.48,-0.687161 -1.01,-1.572318 -0.9,-2.835466 0.29,-0.922215 0.98,-0.96139 2.07,-0.950802 0.77,0.59081 1.42,1.321382 2.05,2.02019 z"
           inkscape:connector-curvature="0" />
        <path
           id="path4730"
           sodipodi:nodetypes="ccccc"
           style="fill:#ffffff;fill-opacity:0.24483002;fill-rule:evenodd;stroke-width:1.02898014"
           d="m -372.13,47.964246 c 0.64,2.01172 -0.39,2.643824 -3.22,1.766078 -1.48,-0.687161 -1.01,-1.571259 -0.9,-2.835466 0.3,-0.922215 0.98,-0.960332 2.07,-0.950802 0.78,0.59081 1.43,1.322441 2.05,2.02019 z"
           inkscape:connector-curvature="0" />
        <path
           id="path4732"
           sodipodi:nodetypes="ccccc"
           style="fill:#ffffff;fill-opacity:0.24483002;fill-rule:evenodd;stroke-width:1.02898014"
           d="m -371.53,37.84 c 0.63,2.01172 -0.39,2.643824 -3.22,1.766079 -1.48,-0.687161 -1.01,-1.572318 -0.9,-2.835467 0.29,-0.922214 0.98,-0.96139 2.07,-0.950802 0.77,0.59081 1.42,1.321382 2.05,2.02019 z"
           inkscape:connector-curvature="0" />
        <path
           id="path4734"
           sodipodi:nodetypes="ccccc"
           style="fill:#ffffff;fill-opacity:0.24483002;fill-rule:evenodd;stroke-width:1.02898014"
           d="m -385.58,34.359725 c 0.64,2.01172 -0.38,2.643823 -3.21,1.766078 -1.49,-0.687161 -1.01,-1.572318 -0.91,-2.835466 0.3,-0.922215 0.98,-0.961391 2.07,-0.950803 0.78,0.590811 1.43,1.321383 2.05,2.020191 z"
           inkscape:connector-curvature="0" />
        <path
           id="path4736"
           sodipodi:nodetypes="ccccc"
           style="fill:#ffffff;fill-opacity:0.24483002;fill-rule:evenodd;stroke-width:1.02898014"
           d="m -357.79,62.518511 c 0.64,2.01172 -0.38,2.643823 -3.21,1.766078 -1.49,-0.687161 -1.01,-1.572318 -0.91,-2.835466 0.3,-0.922215 0.98,-0.961391 2.07,-0.950803 0.78,0.590811 1.43,1.321383 2.05,2.020191 z"
           inkscape:connector-curvature="0" />
        <path
           id="path4738"
           sodipodi:nodetypes="ccccc"
           style="fill:#ffffff;fill-opacity:0.24483002;fill-rule:evenodd;stroke-width:1.02898014"
           d="m -366.45,59.98692 c 0.63,2.01172 -0.39,2.643824 -3.22,1.766078 -1.48,-0.687161 -1.01,-1.571259 -0.9,-2.835466 0.29,-0.922215 0.98,-0.960332 2.07,-0.950802 0.77,0.591869 1.42,1.322441 2.05,2.02019 z"
           inkscape:connector-curvature="0" />
        <path
           id="path4740"
           sodipodi:nodetypes="ccccc"
           style="fill:#ffffff;fill-opacity:0.24483002;fill-rule:evenodd;stroke-width:1.02898014"
           d="m -413.97,104.5984 c 0.64,2.01172 -0.38,2.64382 -3.21,1.76608 -1.49,-0.68717 -1.01,-1.57126 -0.9,-2.83547 0.29,-0.92221 0.97,-0.96033 2.07,-0.9508 0.77,0.59081 1.42,1.32244 2.04,2.02019 z"
           inkscape:connector-curvature="0" />
        <path
           inkscape:connector-curvature="0"
           d="m -394.82,47.113429 c 0.64,2.01172 -0.38,2.643823 -3.21,1.766078 -1.49,-0.687161 -1.01,-1.572318 -0.91,-2.835466 0.3,-0.922215 0.98,-0.961391 2.07,-0.950803 0.78,0.590811 1.43,1.321383 2.05,2.020191 z"
           style="fill:#ffffff;fill-opacity:0.24483002;fill-rule:evenodd;stroke-width:1.02898014"
           sodipodi:nodetypes="ccccc"
           id="path149" />
        <path
           id="path151"
           sodipodi:nodetypes="ccccc"
           style="fill:#ffffff;fill-opacity:0.24483002;fill-rule:evenodd;stroke-width:1.02898014"
           d="m -396.945,33.113429 c 0.64,2.01172 -0.38,2.643823 -3.21,1.766078 -1.49,-0.687161 -1.01,-1.572318 -0.91,-2.835466 0.3,-0.922215 0.98,-0.961391 2.07,-0.950803 0.78,0.590811 1.43,1.321383 2.05,2.020191 z"
           inkscape:connector-curvature="0" />
        <path
           inkscape:connector-curvature="0"
           d="m -413.07,31.738429 c 0.64,2.01172 -0.38,2.643823 -3.21,1.766078 -1.49,-0.687161 -1.01,-1.572318 -0.91,-2.835466 0.3,-0.922215 0.98,-0.961391 2.07,-0.950803 0.78,0.590811 1.43,1.321383 2.05,2.020191 z"
           style="fill:#ffffff;fill-opacity:0.24483002;fill-rule:evenodd;stroke-width:1.02898014"
           sodipodi:nodetypes="ccccc"
           id="path153" />
      </g>
    </g>
  </g>
  <metadata
     id="metadata54">
    <rdf:RDF>
      <cc:Work>
        <dc:format>image/svg+xml</dc:format>
        <dc:type
           rdf:resource="http://purl.org/dc/dcmitype/StillImage" />
        <cc:license
           rdf:resource="http://creativecommons.org/licenses/publicdomain/" />
        <dc:publisher>
          <cc:Agent
             rdf:about="http://openclipart.org/">
            <dc:title>Openclipart</dc:title>
          </cc:Agent>
        </dc:publisher>
        <dc:title></dc:title>
        <dc:date>2008-11-06T22:28:49</dc:date>
        <dc:description>Fruit series. An orange picture in cartoon style.</dc:description>
        <dc:source>https://openclipart.org/detail/20001/orange-by-matou</dc:source>
        <dc:creator>
          <cc:Agent>
            <dc:title>matou</dc:title>
          </cc:Agent>
        </dc:creator>
        <dc:subject>
          <rdf:Bag>
            <rdf:li>cartoon</rdf:li>
            <rdf:li>fruit</rdf:li>
            <rdf:li>orange</rdf:li>
          </rdf:Bag>
        </dc:subject>
      </cc:Work>
      <cc:License
         rdf:about="http://creativecommons.org/licenses/publicdomain/">
        <cc:permits
           rdf:resource="http://creativecommons.org/ns#Reproduction" />
        <cc:permits
           rdf:resource="http://creativecommons.org/ns#Distribution" />
        <cc:permits
           rdf:resource="http://creativecommons.org/ns#DerivativeWorks" />
      </cc:License>
    </rdf:RDF>
  </metadata>
</svg>
