<?xml version="1.0" encoding="UTF-8" standalone="no"?>
<!-- Created with Inkscape (http://www.inkscape.org/) -->

<svg
   xmlns:dc="http://purl.org/dc/elements/1.1/"
   xmlns:cc="http://creativecommons.org/ns#"
   xmlns:rdf="http://www.w3.org/1999/02/22-rdf-syntax-ns#"
   xmlns:svg="http://www.w3.org/2000/svg"
   xmlns="http://www.w3.org/2000/svg"
   xmlns:sodipodi="http://sodipodi.sourceforge.net/DTD/sodipodi-0.dtd"
   xmlns:inkscape="http://www.inkscape.org/namespaces/inkscape"
   width="1024"
   height="600"
   viewBox="0 0 270.93333 158.75"
   version="1.1"
   id="svg841"
   inkscape:version="0.92.3 (2405546, 2018-03-11)"
   sodipodi:docname="background.svg">
  <defs
     id="defs835" />
  <sodipodi:namedview
     id="base"
     pagecolor="#ffffff"
     bordercolor="#666666"
     borderopacity="1.0"
     inkscape:pageopacity="0.0"
     inkscape:pageshadow="2"
     inkscape:zoom="0.7"
     inkscape:cx="184.47288"
     inkscape:cy="343.10699"
     inkscape:document-units="mm"
     inkscape:current-layer="g1499"
     showgrid="false"
     inkscape:window-width="1920"
     inkscape:window-height="1025"
     inkscape:window-x="0"
     inkscape:window-y="27"
     inkscape:window-maximized="1"
     units="px" />
  <metadata
     id="metadata838">
    <rdf:RDF>
      <cc:Work
         rdf:about="">
        <dc:format>image/svg+xml</dc:format>
        <dc:type
           rdf:resource="http://purl.org/dc/dcmitype/StillImage" />
        <dc:title />
      </cc:Work>
    </rdf:RDF>
  </metadata>
  <g
     inkscape:label="Layer 1"
     inkscape:groupmode="layer"
     id="layer1"
     transform="translate(0,-138.25001)">
    <g
       id="g1499"
       transform="matrix(0.24897402,0,0,0.24897402,6.3992229,210.26868)">
      <rect
         ry="0.14174099"
         y="-315.32141"
         x="-25.702381"
         height="675.82141"
         width="1105.2024"
         id="rect1386"
         style="opacity:1;fill:#999999;fill-opacity:1;stroke:none;stroke-width:0.26499999;stroke-miterlimit:4;stroke-dasharray:none;stroke-opacity:1" />
      <path
         sodipodi:nodetypes="caaacaaaac"
         inkscape:connector-curvature="0"
         id="path1388"
         d="m 25.702381,-263.91667 c 0,0 20.54409,26.31255 34.269841,35.27778 22.519127,14.70878 49.397098,22.12986 75.595238,28.22223 16.44394,3.82404 33.6497,7.1751 50.39683,5.03968 50.0864,-6.3865 142.11904,-52.4127 142.11904,-52.4127 0,0 -57.23513,37.17763 -87.69046,52.4127 -19.80886,9.90925 -39.66724,21.37643 -61.48413,25.19841 -21.54928,3.77509 -44.46769,2.99389 -65.57416,-2.76282 -13.941857,-3.80259 -27.429051,-10.83395 -38.243307,-20.41972 -21.483154,-19.04269 -49.388892,-70.55556 -49.388892,-70.55556 z"
         style="fill:#b3b3b3;fill-opacity:1;stroke:none;stroke-width:0.17638889px;stroke-linecap:butt;stroke-linejoin:miter;stroke-opacity:1" />
      <path
         style="fill:#b3b3b3;fill-opacity:1;stroke:none;stroke-width:0.17638889px;stroke-linecap:butt;stroke-linejoin:miter;stroke-opacity:1"
         d="m 1044.7262,239.54762 c 0,0 -20.5441,26.31255 -34.2699,35.27778 -22.51912,14.70877 -49.39707,22.12986 -75.5952,28.22223 -16.44394,3.82404 -33.6497,7.1751 -50.39683,5.03968 -50.0864,-6.3865 -142.11904,-52.4127 -142.11904,-52.4127 0,0 57.23513,37.17763 87.69046,52.4127 19.80886,9.90925 39.66724,21.37643 61.48413,25.19841 21.54928,3.77509 44.46769,2.99389 65.57416,-2.76282 13.94186,-3.80259 27.42905,-10.83396 38.2433,-20.41972 21.48312,-19.04269 49.38892,-70.55556 49.38892,-70.55556 z"
         id="path1390"
         inkscape:connector-curvature="0"
         sodipodi:nodetypes="caaacaaaac" />
      <path
         sodipodi:nodetypes="caaacaaaac"
         inkscape:connector-curvature="0"
         id="path1392"
         d="m 654.65477,80.797634 c 0,0 -20.54413,-26.31255 -34.2699,-35.27778 -22.51912,-14.708768 -49.39707,-22.12986 -75.5952,-28.22223 -16.44394,-3.824036 -33.6497,-7.175101 -50.39683,-5.03968 -50.0864,6.386497 -142.11904,52.4127 -142.11904,52.4127 0,0 57.23513,-37.177629 87.69046,-52.4127 19.80886,-9.9092494 39.66724,-21.3764332 61.48413,-25.19841 21.54928,-3.775095 44.46769,-2.993888 65.57416,2.76282 13.94186,3.8025874 27.42905,10.83395526 38.2433,20.41972 21.48316,19.042691 49.38892,70.55556 49.38892,70.55556 z"
         style="fill:#b3b3b3;fill-opacity:1;stroke:none;stroke-width:0.17638889px;stroke-linecap:butt;stroke-linejoin:miter;stroke-opacity:1" />
      <path
         sodipodi:nodetypes="caaaaacaaaaaaac"
         inkscape:connector-curvature="0"
         id="path1394"
         d="m -25.702381,289.44047 c 9.071429,-13.60713 51.416657,-68.6557 72.571429,-105.83333 14.831478,-26.065 23.009367,-55.5533 37.797618,-81.64285 14.130473,-24.929098 24.877374,-54.66709 48.380954,-71.059519 27.26941,-19.018878 64.96963,-14.464739 96.7619,-24.1904834 33.84454,-10.3535671 74.61467,-11.4046544 99.78572,-36.2857256 26.4283,-26.123844 39.30951,-104.321412 39.30951,-104.321412 0,0 4.23002,78.675301 -15.11903,110.369046 -12.82191,21.0023008 -38.10537,32.0842477 -60.47621,42.333333 -31.67029,14.509582 -70.13836,10.125569 -101.29761,25.702366 -17.95211,8.974427 -33.05033,23.24216 -46.86904,37.797633 -12.42396,13.086356 -23.44646,27.824672 -31.75,43.845242 -9.314,17.97013 -8.94603,40.27683 -19.654767,57.45236 -12.066638,19.35344 -31.426174,33.12663 -48.380951,48.38097 -22.643931,20.37292 -71.059523,57.45237 -71.059523,57.45237 z"
         style="fill:#b3b3b3;stroke:none;stroke-width:0.26458332px;stroke-linecap:butt;stroke-linejoin:miter;stroke-opacity:1" />
      <path
         inkscape:connector-curvature="0"
         id="path1396"
         d="m 184.45238,319.67857 c 0,0 91.14708,-26.49575 134.55952,-45.35715 46.73981,-20.30704 83.66777,-69.92256 134.55951,-72.57142 18.50564,-0.9632 38.18224,8.18394 51.40476,21.16667 23.51499,23.08854 39.30954,90.71427 39.30954,90.71427 0,0 -26.0434,-33.53337 -42.33333,-46.86903 -14.51265,-11.8807 -29.67124,-27.41693 -48.38097,-28.72621 -29.97099,-2.09733 -55.79475,22.36055 -83.15475,34.77382 -26.06692,11.8266 -49.51571,30.17759 -77.10715,37.79763 -35.09759,9.69305 -108.85713,9.07142 -108.85713,9.07142 z"
         style="fill:#b3b3b3;stroke:none;stroke-width:0.26458332px;stroke-linecap:butt;stroke-linejoin:miter;stroke-opacity:1"
         sodipodi:nodetypes="caaacaaaac" />
      <path
         style="fill:#b3b3b3;stroke:none;stroke-width:0.14061013px;stroke-linecap:butt;stroke-linejoin:miter;stroke-opacity:1"
         d="m 1047.75,-197.39286 c 0,0 -41.4114,-16.97633 -60.49525,-28.49359 -21.61823,-13.04679 -35.29344,-44.02905 -60.49524,-45.58974 -8.87062,-0.54934 -17.55877,6.35672 -23.11054,13.29701 -12.42343,15.53058 -17.67278,56.98717 -17.67278,56.98717 0,0 11.27352,-20.70417 19.03221,-29.44336 6.25459,-7.045 12.36184,-17.27552 21.75111,-18.04596 14.38473,-1.18035 25.19229,14.12118 37.3847,21.8451 11.83169,7.4954 21.54893,18.83376 34.66582,23.74466 15.38087,5.75854 48.93997,5.69871 48.93997,5.69871 z"
         id="path1398"
         inkscape:connector-curvature="0"
         sodipodi:nodetypes="caaacaaaac" />
      <path
         sodipodi:nodetypes="caaaacaaaaaac"
         inkscape:connector-curvature="0"
         id="path1400"
         d="m 524.63093,-286.59523 c 0,0 41.40868,89.65331 78.61906,119.44047 34.49021,27.60964 80.6046,38.45639 123.97618,46.86906 45.5275,8.83085 93.52676,-5.59305 139.09525,3.0238 25.84982,4.88811 54.98628,9.11985 74.08337,27.214281 45.39435,43.010991 74.08331,172.35716 74.08331,172.35716 0,0 -45.89313,-95.44865 -83.15477,-131.535722 -14.28028,-13.830137 -32.42975,-24.309531 -51.40476,-30.23811 -13.02355,-4.069097 -27.19194,-2.385849 -40.82145,-3.023794 -25.6792,-1.201946 -51.43199,-0.226106 -77.10713,-1.511917 -31.30824,-1.567917 -64.33682,3.313814 -93.73809,-7.559516 -42.64083,-15.769652 -84.23914,-42.926792 -110.36905,-80.130962 -22.91744,-32.63021 -33.26192,-114.90475 -33.26192,-114.90475 z"
         style="fill:#b3b3b3;stroke:none;stroke-width:0.26458332px;stroke-linecap:butt;stroke-linejoin:miter;stroke-opacity:1" />
    </g>
  </g>
</svg>
