<?xml version="1.0" encoding="UTF-8" standalone="no"?>
<!-- Created with Inkscape (http://www.inkscape.org/) -->

<svg
   xmlns:dc="http://purl.org/dc/elements/1.1/"
   xmlns:cc="http://creativecommons.org/ns#"
   xmlns:rdf="http://www.w3.org/1999/02/22-rdf-syntax-ns#"
   xmlns:svg="http://www.w3.org/2000/svg"
   xmlns="http://www.w3.org/2000/svg"
   xmlns:sodipodi="http://sodipodi.sourceforge.net/DTD/sodipodi-0.dtd"
   xmlns:inkscape="http://www.inkscape.org/namespaces/inkscape"
   width="200"
   height="100"
   viewBox="0 0 52.916666 26.458334"
   version="1.1"
   id="svg866"
   inkscape:version="0.92.3 (2405546, 2018-03-11)"
   sodipodi:docname="enemy3.svg"
   inkscape:export-filename="/home/fukan/Projects/github/kite/lab/scenes/asset/lab.png"
   inkscape:export-xdpi="50.658463"
   inkscape:export-ydpi="50.658463">
  <defs
     id="defs860" />
  <sodipodi:namedview
     id="base"
     pagecolor="#ffffff"
     bordercolor="#666666"
     borderopacity="1.0"
     inkscape:pageopacity="0.0"
     inkscape:pageshadow="2"
     inkscape:zoom="0.98994949"
     inkscape:cx="196.11186"
     inkscape:cy="158.90487"
     inkscape:document-units="mm"
     inkscape:current-layer="layer1"
     showgrid="false"
     units="px"
     inkscape:window-width="1853"
     inkscape:window-height="1018"
     inkscape:window-x="67"
     inkscape:window-y="34"
     inkscape:window-maximized="1"
     inkscape:snap-global="false" />
  <metadata
     id="metadata863">
    <rdf:RDF>
      <cc:Work
         rdf:about="">
        <dc:format>image/svg+xml</dc:format>
        <dc:type
           rdf:resource="http://purl.org/dc/dcmitype/StillImage" />
        <dc:title></dc:title>
      </cc:Work>
    </rdf:RDF>
  </metadata>
  <g
     inkscape:label="Layer 1"
     inkscape:groupmode="layer"
     id="layer1"
     transform="translate(0,-270.54165)">
    <g
       id="g1449"
       transform="translate(1.6036172,0.80180858)">
      <text
         id="text1434"
         y="287.64557"
         x="14.699824"
         style="font-style:normal;font-variant:normal;font-weight:bold;font-stretch:normal;font-size:10.58333302px;line-height:1.25;font-family:sans-serif;-inkscape-font-specification:'sans-serif Bold';letter-spacing:0px;word-spacing:0px;fill:#ffffff;fill-opacity:1;stroke:none;stroke-width:0.26458332"
         xml:space="preserve"><tspan
           style="font-style:normal;font-variant:normal;font-weight:bold;font-stretch:normal;font-family:'Tlwg Mono';-inkscape-font-specification:'Tlwg Mono Bold';fill:#ffffff;stroke-width:0.26458332"
           y="287.64557"
           x="14.699824"
           id="tspan1432"
           sodipodi:role="line">LAB</tspan></text>
      <path
         inkscape:connector-curvature="0"
         id="path1438"
         d="m 21.38153,271.33934 c 0,0 -8.00788,0.0321 -10.156732,2.64547 -3.3911096,4.12414 1.603694,14.28553 1.603694,14.28553 l -3.4746711,8.73004 6.1474961,-5.29093 4.276517,2.91001 3.20739,-4.23275 1.336412,6.08458 7.216625,-5.55549 3.207389,4.4973 -2.405541,-8.20095 c 0,0 1.579573,-11.27092 -2.672825,-14.81462 -2.321244,-1.93438 -8.285754,-1.05819 -8.285754,-1.05819 z"
         style="fill:#916f6f;stroke:#000000;stroke-width:0.26323858px;stroke-linecap:butt;stroke-linejoin:miter;stroke-opacity:1"
         sodipodi:nodetypes="cscccccccccsc" />
      <path
         style="opacity:1;fill:#f9f9f9;fill-opacity:1;stroke:none;stroke-width:0.17889097;stroke-opacity:0.66037741"
         id="path1451"
         sodipodi:type="arc"
         sodipodi:cx="18.976137"
         sodipodi:cy="279.36557"
         sodipodi:rx="5.3453898"
         sodipodi:ry="4.8108506"
         sodipodi:start="0"
         sodipodi:end="6.2737431"
         d="m 24.321527,279.36557 a 5.3453898,4.8108506 0 0 1 -5.332772,4.81084 5.3453898,4.8108506 0 0 1 -5.357948,-4.78813 5.3453898,4.8108506 0 0 1 5.307476,-4.83344 5.3453898,4.8108506 0 0 1 5.383006,4.76531 l -5.345152,0.0454 z" />
      <path
         d="m 20.638843,278.97003 a 2.5390601,2.8063233 0 0 1 -2.533066,2.80632 2.5390601,2.8063233 0 0 1 -2.545026,-2.79307 2.5390601,2.8063233 0 0 1 2.521051,-2.8195 2.5390601,2.8063233 0 0 1 2.556928,2.77975 l -2.538947,0.0265 z"
         sodipodi:end="6.2737431"
         sodipodi:start="0"
         sodipodi:ry="2.8063233"
         sodipodi:rx="2.5390601"
         sodipodi:cy="278.97003"
         sodipodi:cx="18.099783"
         sodipodi:type="arc"
         id="path1442"
         style="opacity:1;fill:#483737;fill-opacity:1;stroke:none;stroke-width:0.18278708;stroke-opacity:0.66037741" />
    </g>
  </g>
</svg>
