<?xml version="1.0" encoding="UTF-8" standalone="no"?>
<!-- Created with Inkscape (http://www.inkscape.org/) -->

<svg
   xmlns:dc="http://purl.org/dc/elements/1.1/"
   xmlns:cc="http://creativecommons.org/ns#"
   xmlns:rdf="http://www.w3.org/1999/02/22-rdf-syntax-ns#"
   xmlns:svg="http://www.w3.org/2000/svg"
   xmlns="http://www.w3.org/2000/svg"
   xmlns:sodipodi="http://sodipodi.sourceforge.net/DTD/sodipodi-0.dtd"
   xmlns:inkscape="http://www.inkscape.org/namespaces/inkscape"
   width="200"
   height="100"
   viewBox="0 0 52.916666 26.458334"
   version="1.1"
   id="svg866"
   inkscape:version="0.92.3 (2405546, 2018-03-11)"
   sodipodi:docname="enemy1.svg"
   inkscape:export-filename="/home/fukan/Projects/github/kite/lab/scenes/asset/lab.png"
   inkscape:export-xdpi="50.658463"
   inkscape:export-ydpi="50.658463">
  <defs
     id="defs860" />
  <sodipodi:namedview
     id="base"
     pagecolor="#ffffff"
     bordercolor="#666666"
     borderopacity="1.0"
     inkscape:pageopacity="0.0"
     inkscape:pageshadow="2"
     inkscape:zoom="0.98994949"
     inkscape:cx="196.11186"
     inkscape:cy="158.90487"
     inkscape:document-units="mm"
     inkscape:current-layer="layer1"
     showgrid="false"
     units="px"
     inkscape:window-width="1853"
     inkscape:window-height="1018"
     inkscape:window-x="67"
     inkscape:window-y="34"
     inkscape:window-maximized="1" />
  <metadata
     id="metadata863">
    <rdf:RDF>
      <cc:Work
         rdf:about="">
        <dc:format>image/svg+xml</dc:format>
        <dc:type
           rdf:resource="http://purl.org/dc/dcmitype/StillImage" />
        <dc:title></dc:title>
      </cc:Work>
    </rdf:RDF>
  </metadata>
  <g
     inkscape:label="Layer 1"
     inkscape:groupmode="layer"
     id="layer1"
     transform="translate(0,-270.54165)">
    <g
       id="g1449"
       transform="translate(1.6036172,0.80180858)">
      <text
         id="text1434"
         y="287.64557"
         x="14.699824"
         style="font-style:normal;font-variant:normal;font-weight:bold;font-stretch:normal;font-size:10.58333302px;line-height:1.25;font-family:sans-serif;-inkscape-font-specification:'sans-serif Bold';letter-spacing:0px;word-spacing:0px;fill:#ffffff;fill-opacity:1;stroke:none;stroke-width:0.26458332"
         xml:space="preserve"><tspan
           style="font-style:normal;font-variant:normal;font-weight:bold;font-stretch:normal;font-family:'Tlwg Mono';-inkscape-font-specification:'Tlwg Mono Bold';fill:#ffffff;stroke-width:0.26458332"
           y="287.64557"
           x="14.699824"
           id="tspan1432"
           sodipodi:role="line">LAB</tspan></text>
      <path
         inkscape:connector-curvature="0"
         id="path1438"
         d="m 21.381562,271.07484 c 0,0 -8.007494,-1.57117 -10.156242,1.06908 -3.3909461,4.16658 1.603617,16.03617 1.603617,16.03617 l -3.7417731,8.01808 6.4144691,-4.54358 7.216276,4.27631 0.26727,-5.61266 7.483547,6.1472 1.069078,-5.61266 6.414468,5.61266 -5.612659,-9.35443 c 0,0 2.381306,-12.99054 -1.870887,-16.57071 -2.321132,-1.95429 -9.087164,0.53454 -9.087164,0.53454 z"
         style="fill:#916f6f;stroke:#000000;stroke-width:0.26458332px;stroke-linecap:butt;stroke-linejoin:miter;stroke-opacity:1"
         sodipodi:nodetypes="cscccccccccsc" />
      <path
         style="opacity:1;fill:#f9f9f9;fill-opacity:1;stroke:none;stroke-width:0.22271746;stroke-opacity:0.66037741"
         id="path1451"
         sodipodi:type="arc"
         sodipodi:cx="21.916101"
         sodipodi:cy="279.89474"
         sodipodi:rx="8.2853546"
         sodipodi:ry="4.8108506"
         sodipodi:start="0"
         sodipodi:end="6.2737431"
         d="m 30.201456,279.89474 a 8.2853546,4.8108506 0 0 1 -8.265797,4.81084 8.2853546,4.8108506 0 0 1 -8.30482,-4.78812 8.2853546,4.8108506 0 0 1 8.226589,-4.83345 8.2853546,4.8108506 0 0 1 8.343659,4.76531 l -8.284986,0.0454 z" />
      <path
         d="m 24.343013,279.49921 a 2.5390601,2.8063233 0 0 1 -2.533066,2.80631 2.5390601,2.8063233 0 0 1 -2.545026,-2.79306 2.5390601,2.8063233 0 0 1 2.521052,-2.81951 2.5390601,2.8063233 0 0 1 2.556927,2.77976 l -2.538947,0.0265 z"
         sodipodi:end="6.2737431"
         sodipodi:start="0"
         sodipodi:ry="2.8063233"
         sodipodi:rx="2.5390601"
         sodipodi:cy="279.49921"
         sodipodi:cx="21.803953"
         sodipodi:type="arc"
         id="path1442"
         style="opacity:1;fill:#483737;fill-opacity:1;stroke:none;stroke-width:0.18278708;stroke-opacity:0.66037741" />
    </g>
  </g>
</svg>
